<svg viewBox="0 0 24 24" fill="none" xmlns="http://www.w3.org/2000/svg">
    <path fill-rule="evenodd" clip-rule="evenodd"
        d="M9.21454 13.0399L8.52209 12.7668C8.09859 12.5998 7.89068 12.1211 8.0577 11.6976C8.14149 11.4851 8.30965 11.317 8.52209 11.2332L9.21454 10.9601C10.0131 10.6452 10.6452 10.0131 10.9601 9.21454L11.2332 8.52209C11.4002 8.09859 11.8789 7.89068 12.3024 8.0577C12.5149 8.14149 12.683 8.30965 12.7668 8.52209L13.0399 9.21454C13.3548 10.0131 13.9869 10.6452 14.7855 10.9601L15.4779 11.2332C15.9014 11.4002 16.1093 11.8789 15.9423 12.3024C15.8585 12.5149 15.6903 12.683 15.4779 12.7668L14.7855 13.0399C13.9869 13.3548 13.3548 13.9869 13.0399 14.7855L12.7668 15.4779C12.5998 15.9014 12.1211 16.1093 11.6976 15.9423C11.4851 15.8585 11.317 15.6903 11.2332 15.4779L10.9601 14.7855C10.6452 13.9869 10.0131 13.3548 9.21454 13.0399Z"/>
</svg>